# xmcd
#
# Track frame offsets: 
#        150
#        15975
#        42088
#        59632
#        77128
#        99286
#        116381
#        128930
#        144502
#        162938
#        180259
#        196005
#        212805
#        238441
#
# Disc length: 3391 seconds
#
# Revision: 0
# Processed by: cddbd v1.5.2PL0 Copyright (c) Steve Scherf et al.
# Submitted via: ExactAudioCopy v1.3
#
DISCID=b60d3d0e
DTITLE=Joanne Cash Yates - The Cost of the Call
DYEAR=1900
DGENRE=Country
TTITLE0=Going By The Book
TTITLE1=Love Letters
TTITLE2=The Preacher Said "Jesus Said"
TTITLE3=I Never Met A Man Like You Before
TTITLE4=The Cost of the Call
TTITLE5=I Came to Believe
TTITLE6=I Feel A Hallelujah Coming On
TTITLE7=That Song
TTITLE8=Far Side Banks of Jordan
TTITLE9=Were You There When They Crucified My Lord
TTITLE10=Listening For the Trumpet
TTITLE11=Plenty of Time
TTITLE12=Free
TTITLE13=Wings in the Morning
EXTD=
EXTT0=
EXTT1=
EXTT2=
EXTT3=
EXTT4=
EXTT5=
EXTT6=
EXTT7=
EXTT8=
EXTT9=
EXTT10=
EXTT11=
EXTT12=
EXTT13=
PLAYORDER=
